<svg id="Layer_1" data-name="Layer 1" xmlns="http://www.w3.org/2000/svg" viewBox="0 0 100 100"><defs><style>.cls-1{fill:#fff;}</style></defs><title>cooker</title><g id="grill_cooking" data-name="grill cooking"><path class="cls-1" d="M44.81,20.94a6.85,6.85,0,0,1-.4,2.31c0,.08-.06.12-.08.2v.12a.62.62,0,0,0,.62.62.64.64,0,0,0,.42-.16s0,0,.06,0a7.42,7.42,0,0,0,2.25-5.07c0-3.27-4.19-4.89-4.19-7.62a8.5,8.5,0,0,1,.18-1.7v0s0-.08,0-.12a.62.62,0,0,0-.62-.62.64.64,0,0,0-.42.16s0,.06-.08.08a6.64,6.64,0,0,0-1.87,4.53C40.73,17.77,44.81,17.81,44.81,20.94Z"/><path class="cls-1" d="M55,20.44a10.78,10.78,0,0,1-1.4,5.29h0a.44.44,0,0,1-.06.1.86.86,0,0,0,0,.24.62.62,0,0,0,.62.62.55.55,0,0,0,.32-.1l.12-.1c2.65-2.15,5-5.51,5-9.29,0-5.23-6.64-7.76-6.64-12.11a11.32,11.32,0,0,1,.64-3.87,2.07,2.07,0,0,0,.08-.2s0-.08,0-.12a.61.61,0,0,0-.62-.62.84.84,0,0,0-.32.08l-.16.14a11,11,0,0,0-4,8.24C48.54,15.39,55,15.47,55,20.44Z"/><path class="cls-1" d="M82.93,32.37H17.11A2.07,2.07,0,0,0,15,34.44a.61.61,0,0,0,0,.2h0c0,.08,0,.16,0,.24a36.44,36.44,0,0,0,17.23,25h0a4.22,4.22,0,0,1,.4.24,0,0,0,0,1,0,0c1.14.7,1.32,1.85,1.08,3.83L29.26,97a2.44,2.44,0,0,0,1.54,2.77l.26.08a2.28,2.28,0,0,0,3.19-1.78l1-7.42s0-.08,0-.12a2.49,2.49,0,0,1,2.47-2.13H62.33a2.49,2.49,0,0,1,2.47,2.13s0,.08,0,.12l1,7.42A2.29,2.29,0,0,0,69,99.84l.24-.08A2.42,2.42,0,0,0,70.76,97L66.2,64c-.24-2-.06-3.17,1.1-3.85h0a2.08,2.08,0,0,1,.36-.2A36.37,36.37,0,0,0,84.92,34.88c0-.08,0-.14,0-.22h0v-.2A2,2,0,0,0,82.93,32.37Zm-48,21.86A23,23,0,0,1,24.23,41.7s0-.06,0-.08,0,0,0-.06a2,2,0,0,1,3.67-1.32l0,.1A19,19,0,0,0,36.76,50.8a2,2,0,0,1,.78,2.65A1.94,1.94,0,0,1,34.9,54.23ZM61,83.65H39a2.5,2.5,0,0,1-2.51-2.51,1.14,1.14,0,0,1,0-.26l2-15a2.87,2.87,0,0,1,3-2.19h0a2.85,2.85,0,0,1,.58.06h0l.2,0a36.48,36.48,0,0,0,15.64,0h0a3.1,3.1,0,0,1,.62-.06,2.89,2.89,0,0,1,3,2.19l2,14.84h0a2.44,2.44,0,0,1,0,.38A2.52,2.52,0,0,1,61,83.65Z"/></g></svg>