<svg id="Layer_1" data-name="Layer 1" xmlns="http://www.w3.org/2000/svg" viewBox="0 0 100 100"><defs><style>.cls-1{fill:#fff;}.cls-2{fill:#9e9e9e;}</style></defs><title>meat</title><g id="Steak"><g id="Page-1"><g id="Symbolicons-Color"><g id="steak-2" data-name="steak"><path id="Fill-303" class="cls-1" d="M4.84,93c7.26,10,33.2,8.92,58.22-1,40.58-16.1,41.7-37.48,31.66-61.54a62.86,62.86,0,0,0-7.14-12.82C76.63,2.65,60.77-3.49,47.32,2c-16.8,6.8-16.48,18.62-16.06,34.4.38,13.8-6.86,21.78-18.48,27.74S-4.84,79.77,4.84,93"/><path id="Fill-304" class="cls-2" d="M8.08,79c.6-2.84,3.68-5.7,8.38-8.1,15.7-8,23.12-19.38,22.7-34.72-.46-16.6,0-22.58,11.2-27.12a18.53,18.53,0,0,1,7-1.36c8.22,0,17,5.16,23.7,14.4a54.57,54.57,0,0,1,6.28,11.26c9,21.58,7.58,37.74-27.32,51.58-13.78,5.5-24.9,7.24-33.06,7.24-8.68,0-14-2-15.7-3.52A9.79,9.79,0,0,1,8.08,79"/><path id="Fill-305" class="cls-1" d="M34.06,75.31c.22-.12,21.24-12.64,25-28.54,1.3-5.46-2.52-16-2.56-16.12A1.5,1.5,0,0,1,57,28.91a1.53,1.53,0,0,1,1.82,0C68.33,35.81,73.77,45.61,75,58a1.55,1.55,0,0,1-1,1.58,1.52,1.52,0,0,1-1.78-.52c-2.14-2.9-4.76-3.24-7.16-1.52-.28.26-2.46,2.42-4.2,4.18-3.5,3.5-5.44,5.44-5.78,5.74-9.4,7.92-18.2,10.26-19.84,10.64h0l-.28,0a1.54,1.54,0,0,1-.9-2.86"/></g></g></g></g></svg>